<svg width="640" height="640" viewBox="0 0 640 640" xmlns="http://www.w3.org/2000/svg" fill="none">
  <defs>
    <linearGradient id="bg" x1="0" y1="0" x2="1" y2="1">
      <stop offset="0%" stop-color="#7c3aed"/>
      <stop offset="100%" stop-color="#22d3ee"/>
    </linearGradient>
  </defs>
  <rect width="640" height="640" rx="48" fill="#0b0f1c"/>
  <circle cx="180" cy="190" r="120" fill="url(#bg)" opacity="0.14"/>
  <circle cx="480" cy="120" r="100" fill="#22d3ee" opacity="0.1"/>
  <circle cx="520" cy="360" r="140" fill="#7c3aed" opacity="0.08"/>
  <g filter="url(#shadow)">
    <path d="M310 180c0-22 18-40 40-40h6c22 0 40 18 40 40v32c0 22-18 40-40 40h-6c-22 0-40-18-40-40V180Z" fill="#f7f7ff"/>
    <path d="M284 258c0-38 31-69 69-69h6c38 0 69 31 69 69v40c0 52-42 94-94 94s-94-42-94-94v-40Z" fill="#f7f7ff"/>
    <path d="M330 162c0-16 14-30 30-30h8c16 0 30 14 30 30 0 8-4 13-10 18-5 4-12 8-20 8h-8c-8 0-15-4-20-8-6-5-10-10-10-18Z" fill="#0f172a"/>
    <circle cx="334" cy="220" r="10" fill="#0f172a"/>
    <circle cx="378" cy="220" r="10" fill="#0f172a"/>
    <path d="M348 246c6 6 16 6 22 0" stroke="#0f172a" stroke-width="6" stroke-linecap="round"/>
  </g>
  <path d="M292 342c16 12 38 18 58 18s42-6 58-18c8 6 18 18 18 30 0 24-34 44-76 44s-76-20-76-44c0-12 10-24 18-30Z" fill="#1e293b"/>
  <path d="M240 400c26-4 44-20 52-46" stroke="#22d3ee" stroke-width="8" stroke-linecap="round" opacity="0.7"/>
  <path d="M460 396c-26-4-44-20-52-46" stroke="#7c3aed" stroke-width="8" stroke-linecap="round" opacity="0.7"/>
  <rect x="226" y="440" width="188" height="28" rx="14" fill="#111827" opacity="0.8"/>
  <rect x="256" y="470" width="128" height="22" rx="11" fill="#0ea5e9" opacity="0.9"/>
  <circle cx="226" cy="470" r="12" fill="#7c3aed"/>
  <circle cx="414" cy="470" r="12" fill="#22d3ee"/>
  <rect x="170" y="518" width="300" height="16" rx="8" fill="#0f172a" opacity="0.6"/>
  <defs>
    <filter id="shadow" x="240" y="120" width="200" height="272" filterUnits="userSpaceOnUse" color-interpolation-filters="sRGB">
      <feDropShadow dx="0" dy="14" stdDeviation="20" flood-color="#000" flood-opacity="0.35"/>
    </filter>
  </defs>
</svg>
